<svg width="512" height="512" viewBox="0 0 512 512" fill="none" xmlns="http://www.w3.org/2000/svg">
<rect width="512" height="512" rx="100" fill="#0C0C0C"/>
<path d="M86.8622 141.678C87.0391 119.713 104.895 102 126.861 102H387C409.091 102 427 119.909 427 142V332.842C427 354.933 409.091 372.842 387 372.842H327.727L268.682 431.714C262.429 437.949 252.308 437.94 246.066 431.693L187.267 372.842H125.324C103.106 372.842 85.1459 354.737 85.3248 332.52L86.8622 141.678Z" fill="white"/>
<path d="M199.013 353.356L197.543 351.861H195.447H128C117.507 351.861 109 343.354 109 332.861V143C109 132.507 117.507 124 128 124H387C397.493 124 406 132.507 406 143V332.861C406 343.354 397.493 351.861 387 351.861H320.642H318.571L317.106 353.325L257.531 412.898L199.013 353.356Z" stroke="#0C0C0C" stroke-width="10"/>
<path d="M346.516 274.559V204.012H339.25C336.359 204.012 334.289 203.465 333.039 202.371C331.828 201.238 331.223 199.793 331.223 198.035C331.223 196.238 331.828 194.793 333.039 193.699C334.289 192.566 336.359 192 339.25 192H358.527V286.57H339.309C336.418 286.57 334.348 286.004 333.098 284.871C331.887 283.777 331.281 282.332 331.281 280.535C331.281 278.777 331.887 277.332 333.098 276.199C334.348 275.105 336.418 274.559 339.309 274.559H346.516Z" fill="#8758FF"/>
<path d="M298.445 274.559V204.012H291.18C288.289 204.012 286.219 203.465 284.969 202.371C283.758 201.238 283.152 199.793 283.152 198.035C283.152 196.238 283.758 194.793 284.969 193.699C286.219 192.566 288.289 192 291.18 192H310.457V286.57H291.238C288.348 286.57 286.277 286.004 285.027 284.871C283.816 283.777 283.211 282.332 283.211 280.535C283.211 278.777 283.816 277.332 285.027 276.199C286.277 275.105 288.348 274.559 291.238 274.559H298.445Z" fill="#8758FF"/>
<path d="M214.082 204.012V274.559H221.348C224.238 274.559 226.289 275.105 227.5 276.199C228.75 277.293 229.375 278.738 229.375 280.535C229.375 282.332 228.75 283.777 227.5 284.871C226.289 286.004 224.238 286.57 221.348 286.57H202.07V192H221.289C224.18 192 226.23 192.566 227.441 193.699C228.691 194.793 229.316 196.238 229.316 198.035C229.316 199.793 228.691 201.238 227.441 202.371C226.23 203.465 224.18 204.012 221.289 204.012H214.082Z" fill="#8758FF"/>
<path d="M166.012 204.012V274.559H173.277C176.168 274.559 178.219 275.105 179.43 276.199C180.68 277.293 181.305 278.738 181.305 280.535C181.305 282.332 180.68 283.777 179.43 284.871C178.219 286.004 176.168 286.57 173.277 286.57H154V192H173.219C176.109 192 178.16 192.566 179.371 193.699C180.621 194.793 181.246 196.238 181.246 198.035C181.246 199.793 180.621 201.238 179.371 202.371C178.16 203.465 176.109 204.012 173.219 204.012H166.012Z" fill="#8758FF"/>
</svg>
